<?xml version="1.0" encoding="UTF-8"?>
<svg xmlns="http://www.w3.org/2000/svg" xmlns:xlink="http://www.w3.org/1999/xlink" width="60px" height="60px" viewBox="0 0 60 60" version="1.1">
<g id="surface1">
<path style=" stroke:none;fill-rule:nonzero;fill:rgb(30.588236%,47.058824%,58.823532%);fill-opacity:1;" d="M 21.792969 46.386719 C 21.792969 46.386719 19.484375 47.789062 23.394531 48.191406 C 28.101562 48.792969 30.609375 48.691406 35.816406 47.691406 C 36.863281 48.332031 37.96875 48.867188 39.121094 49.292969 C 27.402344 54.304688 12.570312 48.992188 21.789062 46.386719 Z M 20.292969 39.875 C 20.292969 39.875 17.785156 41.777344 21.695312 42.183594 C 26.804688 42.683594 30.808594 42.78125 37.726562 41.382812 C 38.398438 42.0625 39.222656 42.578125 40.128906 42.882812 C 26.003906 47.089844 10.171875 43.285156 20.292969 39.878906 Z M 47.941406 51.292969 C 47.941406 51.292969 49.644531 52.695312 46.039062 53.800781 C 39.328125 55.804688 17.886719 56.40625 11.875 53.800781 C 9.773438 52.898438 13.78125 51.597656 15.0625 51.394531 C 16.367188 51.09375 17.070312 51.09375 17.070312 51.09375 C 14.765625 49.492188 1.742188 54.402344 10.457031 55.800781 C 34.402344 59.710938 54.140625 54.097656 47.925781 51.292969 Z M 22.875 33.0625 C 22.875 33.0625 11.953125 35.667969 18.96875 36.566406 C 21.972656 36.96875 27.882812 36.867188 33.394531 36.46875 C 37.902344 36.066406 42.414062 35.269531 42.414062 35.269531 C 42.414062 35.269531 40.808594 35.96875 39.707031 36.671875 C 28.589844 39.578125 7.246094 38.273438 13.359375 35.269531 C 18.566406 32.765625 22.875 33.066406 22.875 33.066406 Z M 42.414062 43.980469 C 53.632812 38.167969 48.421875 32.5625 44.816406 33.261719 C 43.917969 33.464844 43.511719 33.664062 43.511719 33.664062 C 43.511719 33.664062 43.8125 33.0625 44.515625 32.863281 C 51.628906 30.359375 57.238281 40.375 42.207031 44.28125 C 42.207031 44.28125 42.308594 44.183594 42.410156 43.980469 Z M 23.980469 59.8125 C 34.800781 60.511719 51.332031 59.410156 51.730469 54.296875 C 51.730469 54.296875 50.929688 56.304688 42.816406 57.804688 C 33.597656 59.507812 22.175781 59.304688 15.464844 58.207031 C 15.464844 58.207031 16.867188 59.40625 23.980469 59.808594 Z M 23.980469 59.8125 "/>
<path style=" stroke:none;fill-rule:nonzero;fill:rgb(96.078432%,50.980395%,9.803922%);fill-opacity:1;" d="M 35.617188 0 C 35.617188 0 41.828125 6.3125 29.707031 15.832031 C 19.988281 23.542969 27.503906 27.953125 29.707031 32.960938 C 23.996094 27.851562 19.890625 23.34375 22.695312 19.136719 C 26.800781 12.925781 38.121094 9.9375 35.617188 0 Z M 32.429688 28.753906 C 35.335938 32.0625 31.628906 35.066406 31.628906 35.066406 C 31.628906 35.066406 39.042969 31.261719 35.636719 26.550781 C 32.53125 22.042969 30.125 19.835938 43.148438 12.324219 C 43.148438 12.324219 22.613281 17.433594 32.429688 28.753906 Z M 32.429688 28.753906 "/>
</g>
</svg>
