<?xml version="1.0" encoding="UTF-8"?>
<svg xmlns="http://www.w3.org/2000/svg" xmlns:xlink="http://www.w3.org/1999/xlink" width="60px" height="60px" viewBox="0 0 60 59" version="1.1">
<defs>
<linearGradient id="linear0" gradientUnits="userSpaceOnUse" x1="63.815899" y1="56.682899" x2="118.493401" y2="1.8225" gradientTransform="matrix(0.545455,0,0,-0.536364,-29.185855,35.673062)">
<stop offset="0" style="stop-color:rgb(21.960784%,49.411765%,72.156863%);stop-opacity:1;"/>
<stop offset="1" style="stop-color:rgb(21.176471%,41.176471%,58.039216%);stop-opacity:1;"/>
</linearGradient>
<linearGradient id="linear1" gradientUnits="userSpaceOnUse" x1="97.044403" y1="21.632099" x2="155.666504" y2="-34.5308" gradientTransform="matrix(0.545455,0,0,-0.536364,-29.185855,35.673062)">
<stop offset="0" style="stop-color:rgb(100%,87.843137%,32.156863%);stop-opacity:1;"/>
<stop offset="1" style="stop-color:rgb(100%,76.470588%,19.215686%);stop-opacity:1;"/>
</linearGradient>
</defs>
<g id="surface1">
<path style=" stroke:none;fill-rule:nonzero;fill:url(#linear0);" d="M 29.898438 0 C 15.730469 0 15.578125 5.40625 15.578125 6.519531 C 15.578125 8.207031 15.578125 13.273438 15.578125 13.273438 L 30.171875 13.273438 L 30.171875 15.304688 C 30.171875 15.304688 14.980469 15.304688 9.785156 15.304688 C 5.449219 15.304688 0 17.894531 0 29.382812 C 0 39.933594 4.25 44.015625 8.539062 44.015625 C 9.8125 44.015625 13.636719 44.015625 13.636719 44.015625 C 13.636719 44.015625 13.636719 38.777344 13.636719 36.976562 C 13.636719 34.03125 15.121094 28.578125 22.039062 28.578125 C 30.71875 28.578125 32.933594 28.578125 36.511719 28.578125 C 38.640625 28.578125 44.640625 27.667969 44.640625 20.851562 C 44.640625 13.636719 44.640625 11.253906 44.640625 7.859375 C 44.640625 6.167969 44.347656 0 29.898438 0 Z M 21.851562 4.542969 C 23.304688 4.542969 24.476562 5.695312 24.476562 7.125 C 24.476562 8.550781 23.304688 9.707031 21.851562 9.707031 C 20.402344 9.707031 19.226562 8.550781 19.226562 7.125 C 19.226562 5.695312 20.402344 4.542969 21.851562 4.542969 Z M 21.851562 4.542969 "/>
<path style=" stroke:none;fill-rule:nonzero;fill:url(#linear1);" d="M 30.101562 59 C 44.261719 59 44.4375 53.492188 44.4375 52.480469 C 44.4375 50.792969 44.4375 45.726562 44.4375 45.726562 L 29.828125 45.726562 L 29.828125 43.695312 C 29.828125 43.695312 45.121094 43.695312 50.214844 43.695312 C 54.585938 43.695312 60 41.039062 60 29.617188 C 60 17.109375 54.253906 14.984375 51.460938 14.984375 C 50.1875 14.984375 46.363281 14.984375 46.363281 14.984375 C 46.363281 14.984375 46.363281 20.464844 46.363281 22.023438 C 46.363281 24.96875 44.929688 30.421875 37.960938 30.421875 C 29.28125 30.421875 27.335938 30.421875 23.488281 30.421875 C 21.367188 30.421875 15.359375 31.4375 15.359375 38.148438 C 15.359375 45.914062 15.359375 47.945312 15.359375 51.140625 C 15.359375 53.945312 17.101562 59 30.101562 59 Z M 38.148438 54.457031 C 36.695312 54.457031 35.523438 53.304688 35.523438 51.875 C 35.523438 50.449219 36.695312 49.292969 38.148438 49.292969 C 39.597656 49.292969 40.773438 50.449219 40.773438 51.875 C 40.773438 53.304688 39.597656 54.457031 38.148438 54.457031 Z M 38.148438 54.457031 "/>
</g>
</svg>
