<?xml version="1.0" encoding="UTF-8"?>
<svg xmlns="http://www.w3.org/2000/svg" xmlns:xlink="http://www.w3.org/1999/xlink" width="60px" height="60px" viewBox="0 0 60 60" version="1.1">
<g id="surface1">
<path style=" stroke:none;fill-rule:evenodd;fill:rgb(0%,40.392157%,54.901963%);fill-opacity:1;" d="M 55.265625 46.738281 C 52.003906 46.644531 49.472656 46.980469 47.351562 47.871094 C 46.738281 48.117188 45.757812 48.117188 45.679688 48.886719 C 46.003906 49.210938 46.042969 49.738281 46.332031 50.183594 C 46.820312 50.996094 47.675781 52.089844 48.453125 52.65625 L 51.0625 54.523438 C 52.65625 55.496094 54.449219 56.0625 56 57.039062 C 56.898438 57.605469 57.796875 58.335938 58.695312 58.945312 C 59.152344 59.269531 59.429688 59.796875 60 60 L 60 59.875 C 59.714844 59.511719 59.632812 58.984375 59.347656 58.578125 L 58.121094 57.402344 C 56.941406 55.820312 55.46875 54.441406 53.878906 53.308594 C 52.574219 52.414062 49.71875 51.199219 49.1875 49.699219 L 49.105469 49.609375 C 50.003906 49.515625 51.0625 49.203125 51.921875 48.957031 C 53.308594 48.59375 54.574219 48.675781 56 48.308594 L 57.960938 47.742188 L 57.960938 47.378906 C 57.226562 46.648438 56.695312 45.675781 55.921875 44.984375 C 53.839844 43.203125 51.554688 41.457031 49.1875 39.996094 C 47.921875 39.1875 46.289062 38.660156 44.941406 37.972656 C 44.453125 37.726562 43.636719 37.605469 43.351562 37.199219 C 42.617188 36.308594 42.207031 35.132812 41.679688 34.078125 L 38.332031 27.019531 C 37.597656 25.441406 37.148438 23.859375 36.25 22.398438 C 32.046875 15.503906 27.476562 11.328125 20.457031 7.230469 C 18.949219 6.378906 17.152344 6.011719 15.246094 5.566406 L 12.183594 5.402344 C 11.53125 5.121094 10.878906 4.351562 10.308594 3.984375 C 7.980469 2.523438 1.984375 -0.636719 0.269531 3.53125 C -0.835938 6.164062 1.898438 8.761719 2.828125 10.101562 C 3.523438 11.03125 4.417969 12.085938 4.910156 13.140625 C 5.183594 13.828125 5.277344 14.5625 5.5625 15.289062 C 6.214844 17.074219 6.828125 19.0625 7.683594 20.726562 C 8.140625 21.578125 8.621094 22.472656 9.195312 23.242188 C 9.519531 23.695312 10.09375 23.890625 10.214844 24.621094 C 9.640625 25.429688 9.601562 26.648438 9.277344 27.660156 C 7.808594 32.246094 8.378906 37.921875 10.460938 41.296875 C 11.113281 42.308594 12.652344 44.539062 14.746094 43.6875 C 16.582031 42.957031 16.171875 40.648438 16.703125 38.617188 C 16.824219 38.132812 16.742188 37.808594 16.988281 37.484375 L 16.988281 37.574219 L 18.660156 40.941406 C 19.925781 42.925781 22.128906 44.996094 23.964844 46.375 C 24.945312 47.105469 25.71875 48.363281 26.945312 48.808594 L 26.945312 48.683594 L 26.863281 48.683594 C 26.617188 48.320312 26.25 48.160156 25.925781 47.875 C 25.191406 47.144531 24.375 46.253906 23.800781 45.441406 C 22.089844 43.171875 20.578125 40.65625 19.234375 38.0625 C 18.578125 36.804688 18.007812 35.425781 17.480469 34.167969 C 17.230469 33.679688 17.230469 32.949219 16.824219 32.707031 C 16.210938 33.597656 15.316406 34.371094 14.863281 35.464844 C 14.089844 37.210938 14.007812 39.359375 13.722656 41.589844 C 13.558594 41.628906 13.632812 41.589844 13.558594 41.679688 C 12.253906 41.355469 11.804688 40.015625 11.316406 38.882812 C 10.089844 36.003906 9.886719 31.378906 10.949219 28.054688 C 11.234375 27.203125 12.457031 24.527344 11.96875 23.714844 C 11.722656 22.945312 10.90625 22.5 10.457031 21.890625 C 9.925781 21.121094 9.359375 20.148438 8.988281 19.296875 C 8.011719 17.023438 7.523438 14.507812 6.460938 12.238281 C 5.96875 11.183594 5.113281 10.089844 4.417969 9.117188 C 3.644531 8.019531 2.789062 7.25 2.175781 5.953125 C 1.972656 5.5 1.6875 4.777344 2.011719 4.289062 C 2.09375 3.964844 2.257812 3.835938 2.582031 3.761719 C 3.113281 3.308594 4.625 3.882812 5.15625 4.125 C 6.664062 4.734375 7.929688 5.300781 9.191406 6.152344 C 9.765625 6.558594 10.378906 7.328125 11.113281 7.53125 L 11.96875 7.53125 C 13.277344 7.816406 14.742188 7.625 15.964844 7.988281 C 18.128906 8.679688 20.089844 9.691406 21.84375 10.785156 C 27.1875 14.152344 31.597656 18.9375 34.574219 24.65625 C 35.066406 25.589844 35.269531 26.441406 35.71875 27.414062 C 36.578125 29.402344 37.636719 31.429688 38.492188 33.378906 C 39.351562 35.285156 40.167969 37.230469 41.390625 38.8125 C 42.003906 39.664062 44.449219 40.109375 45.550781 40.554688 C 46.367188 40.917969 47.632812 41.246094 48.367188 41.691406 C 49.753906 42.542969 51.140625 43.515625 52.449219 44.449219 C 53.097656 44.933594 55.140625 45.949219 55.261719 46.757812 Z M 13.652344 11.496094 C 13.089844 11.492188 12.527344 11.558594 11.980469 11.699219 L 11.980469 11.789062 L 12.0625 11.789062 C 12.386719 12.4375 12.960938 12.882812 13.367188 13.453125 L 14.308594 15.398438 L 14.386719 15.308594 C 14.957031 14.902344 15.246094 14.253906 15.246094 13.28125 C 15 13 14.960938 12.714844 14.753906 12.429688 C 14.511719 12.023438 13.980469 11.820312 13.652344 11.496094 Z M 13.652344 11.496094 "/>
</g>
</svg>
