<?xml version="1.0" encoding="UTF-8"?>
<svg xmlns="http://www.w3.org/2000/svg" xmlns:xlink="http://www.w3.org/1999/xlink" width="60px" height="60px" viewBox="0 0 60 60" version="1.1">
<g id="surface1">
<path style=" stroke:none;fill-rule:nonzero;fill:rgb(81.960785%,81.960785%,81.960785%);fill-opacity:1;" d="M 24.089844 11.660156 C 11.238281 11.660156 0.820312 9.867188 0.820312 7.660156 L 0.820312 50.910156 C 0.820312 53.125 11.238281 54.910156 24.089844 54.910156 C 36.945312 54.910156 47.363281 53.113281 47.363281 50.910156 L 47.363281 7.636719 C 47.363281 9.867188 36.945312 11.664062 24.089844 11.664062 Z M 24.089844 11.660156 "/>
<path style=" stroke:none;fill-rule:nonzero;fill:rgb(67.843139%,67.843139%,67.843139%);fill-opacity:1;" d="M 0.820312 7.636719 L 0.820312 50.910156 C 0.820312 53.125 11.238281 54.910156 24.089844 54.910156 L 24.089844 11.660156 C 11.238281 11.660156 0.820312 9.867188 0.820312 7.636719 Z M 44.09375 9.699219 L 44.09375 52.949219 C 46.167969 52.351562 47.363281 51.648438 47.363281 50.898438 L 47.363281 7.636719 C 47.363281 8.402344 46.171875 9.089844 44.09375 9.699219 Z M 44.09375 9.699219 "/>
<path style=" stroke:none;fill-rule:nonzero;fill:rgb(57.647061%,58.823532%,60.000002%);fill-opacity:1;" d="M 47.363281 7.648438 C 47.363281 5.433594 36.945312 3.636719 24.089844 3.636719 C 11.238281 3.636719 0.820312 5.433594 0.820312 7.648438 C 0.820312 9.863281 11.238281 11.660156 24.089844 11.660156 C 36.941406 11.660156 47.363281 9.863281 47.363281 7.648438 Z M 0.820312 34.84375 C 0.820312 37.058594 11.238281 38.84375 24.089844 38.84375 C 36.945312 38.84375 47.363281 37.046875 47.363281 34.84375 L 47.363281 38.117188 C 47.363281 40.332031 36.945312 42.117188 24.089844 42.117188 C 11.238281 42.117188 0.820312 40.320312 0.820312 38.117188 Z M 0.820312 20.429688 C 0.820312 22.644531 11.238281 24.429688 24.089844 24.429688 C 36.945312 24.429688 47.363281 22.632812 47.363281 20.429688 L 47.363281 23.699219 C 47.363281 25.917969 36.945312 27.703125 24.089844 27.703125 C 11.238281 27.703125 0.820312 25.90625 0.820312 23.703125 Z M 0.820312 20.429688 "/>
<path style=" stroke:none;fill-rule:nonzero;fill:rgb(92.54902%,92.941177%,94.117647%);fill-opacity:1;" d="M 59.363281 43.636719 C 59.363281 51.269531 53.175781 57.453125 45.546875 57.453125 C 37.914062 57.453125 31.726562 51.269531 31.726562 43.636719 C 31.726562 36.003906 37.914062 29.820312 45.546875 29.820312 C 53.175781 29.820312 59.363281 36.003906 59.363281 43.636719 Z M 59.363281 43.636719 "/>
<path style=" stroke:none;fill-rule:nonzero;fill:rgb(24.705882%,66.666669%,0%);fill-opacity:1;" d="M 57.65625 43.636719 C 57.65625 50.328125 52.234375 55.75 45.546875 55.75 C 38.855469 55.75 33.433594 50.328125 33.433594 43.636719 C 33.433594 36.945312 38.855469 31.523438 45.546875 31.523438 C 52.234375 31.523438 57.65625 36.945312 57.65625 43.636719 Z M 57.65625 43.636719 "/>
<path style=" stroke:none;fill-rule:nonzero;fill:rgb(100%,100%,100%);fill-opacity:1;" d="M 41.28125 49.644531 L 52.542969 43.140625 L 41.277344 36.640625 Z M 41.28125 49.644531 "/>
</g>
</svg>
