<?xml version="1.0" encoding="UTF-8"?>
<svg xmlns="http://www.w3.org/2000/svg" xmlns:xlink="http://www.w3.org/1999/xlink" width="60px" height="60px" viewBox="0 0 60 60" version="1.1">
<defs>
<linearGradient id="linear0" gradientUnits="userSpaceOnUse" x1="2.983" y1="0.53" x2="2.983" y2="4.744" gradientTransform="matrix(9.153318,0,0,9.153318,0.00457633,0)">
<stop offset="0" style="stop-color:rgb(59.215686%,85.098039%,96.470588%);stop-opacity:1;"/>
<stop offset="0.92024" style="stop-color:rgb(5.882353%,50.196078%,80%);stop-opacity:1;"/>
<stop offset="1" style="stop-color:rgb(5.882353%,50.196078%,80%);stop-opacity:1;"/>
</linearGradient>
</defs>
<g id="surface1">
<path style=" stroke:none;fill-rule:nonzero;fill:rgb(5.882353%,50.196081%,80.000001%);fill-opacity:1;" d="M 45.40625 2.65625 L 7.757812 2.65625 C 5.230469 2.65625 3.179688 4.722656 3.179688 7.230469 L 3.179688 48.75 C 3.179688 51.277344 5.25 53.328125 7.757812 53.328125 L 32.5625 53.328125 C 32.289062 40.988281 36.5 17.042969 45.414062 2.617188 Z M 45.40625 2.65625 "/>
<path style=" stroke:none;fill-rule:nonzero;fill:url(#linear0);" d="M 44.03125 4 L 7.757812 4 C 5.964844 4 4.507812 5.464844 4.507812 7.25 L 4.507812 45.738281 C 12.726562 42.582031 25.058594 39.863281 33.589844 39.992188 C 36.21875 27.761719 39.710938 15.734375 44.042969 4 Z M 44.03125 4 "/>
<path style=" stroke:none;fill-rule:nonzero;fill:rgb(0%,23.137255%,34.117648%);fill-opacity:1;" d="M 54.191406 1.300781 C 51.609375 -0.988281 48.488281 -0.0742188 45.40625 2.65625 L 44.03125 3.992188 C 38.757812 9.574219 33.964844 19.9375 32.351562 27.855469 C 32.925781 29.109375 33.378906 30.414062 33.707031 31.753906 L 33.910156 32.667969 L 34.109375 33.601562 C 34.109375 33.601562 34.0625 33.417969 33.871094 32.871094 L 33.742188 32.503906 C 33.3125 31.503906 32.378906 29.8125 31.949219 29.082031 C 31.617188 30.054688 31.300781 31.03125 31.007812 32.019531 C 32.214844 34.234375 32.949219 38.023438 32.949219 38.023438 C 32.949219 38.023438 32.882812 37.777344 32.582031 36.925781 C 32.304688 36.164062 30.96875 33.8125 30.660156 33.261719 C 30.109375 35.277344 29.898438 36.632812 30.089844 36.960938 C 30.457031 37.601562 30.824219 38.792969 31.144531 39.925781 C 31.636719 41.941406 32.042969 43.972656 32.351562 46.023438 L 32.398438 46.589844 C 32.304688 48.878906 32.347656 51.171875 32.535156 53.457031 C 32.773438 56.320312 33.222656 58.78125 33.789062 60.101562 L 34.175781 59.890625 C 33.351562 57.289062 33.003906 53.894531 33.148438 49.96875 C 33.378906 43.972656 34.75 36.742188 37.304688 29.207031 C 41.632812 17.738281 47.601562 8.605469 53.074219 4.246094 C 48.085938 8.75 41.339844 23.324219 39.328125 28.714844 C 37.066406 34.753906 35.464844 40.429688 34.496094 45.859375 C 36.160156 40.769531 41.542969 38.570312 41.542969 38.570312 C 41.542969 38.570312 44.195312 35.3125 47.273438 30.65625 L 41.367188 32.230469 L 39.464844 33.070312 C 39.464844 33.070312 44.316406 30.113281 48.5 28.769531 C 54.238281 19.734375 60.488281 6.890625 54.191406 1.289062 "/>
</g>
</svg>
