<?xml version="1.0" encoding="UTF-8"?>
<svg xmlns="http://www.w3.org/2000/svg" xmlns:xlink="http://www.w3.org/1999/xlink" width="60px" height="60px" viewBox="0 0 60 62" version="1.1">
<g id="surface1">
<path style=" stroke:none;fill-rule:evenodd;fill:rgb(100%,17.647059%,12.54902%);fill-opacity:1;" d="M 59.550781 13.789062 C 59.574219 13.867188 59.585938 13.953125 59.585938 14.035156 L 59.585938 27.117188 C 59.585938 27.460938 59.402344 27.777344 59.101562 27.945312 L 48.050781 34.269531 L 48.050781 46.796875 C 48.050781 47.140625 47.871094 47.453125 47.570312 47.625 L 24.503906 60.820312 C 24.453125 60.847656 24.394531 60.867188 24.335938 60.890625 C 24.3125 60.894531 24.292969 60.910156 24.269531 60.914062 C 24.109375 60.957031 23.941406 60.957031 23.777344 60.914062 C 23.753906 60.90625 23.730469 60.894531 23.703125 60.882812 C 23.652344 60.863281 23.59375 60.847656 23.546875 60.820312 L 0.480469 47.625 C 0.183594 47.457031 0 47.140625 0 46.796875 L 0 7.550781 C 0 7.464844 0.0117188 7.382812 0.0351562 7.300781 C 0.0390625 7.273438 0.0585938 7.25 0.0664062 7.222656 C 0.0859375 7.171875 0.101562 7.121094 0.128906 7.074219 C 0.144531 7.042969 0.171875 7.019531 0.195312 6.988281 C 0.222656 6.949219 0.246094 6.910156 0.28125 6.878906 C 0.308594 6.851562 0.34375 6.832031 0.375 6.808594 C 0.410156 6.777344 0.441406 6.746094 0.480469 6.726562 L 12.011719 0.128906 C 12.308594 -0.0429688 12.675781 -0.0429688 12.972656 0.128906 L 24.503906 6.726562 L 24.507812 6.726562 C 24.546875 6.75 24.578125 6.777344 24.613281 6.804688 C 24.644531 6.828125 24.679688 6.851562 24.707031 6.878906 C 24.742188 6.910156 24.765625 6.949219 24.792969 6.988281 C 24.8125 7.019531 24.839844 7.042969 24.859375 7.074219 C 24.886719 7.121094 24.902344 7.171875 24.921875 7.222656 C 24.929688 7.25 24.945312 7.273438 24.953125 7.304688 C 24.976562 7.382812 24.988281 7.46875 24.988281 7.550781 L 24.988281 32.066406 L 34.597656 26.566406 L 34.597656 14.035156 C 34.597656 13.953125 34.609375 13.867188 34.628906 13.789062 C 34.640625 13.757812 34.65625 13.734375 34.664062 13.707031 C 34.683594 13.65625 34.699219 13.605469 34.726562 13.558594 C 34.746094 13.527344 34.769531 13.503906 34.792969 13.472656 C 34.820312 13.4375 34.84375 13.398438 34.878906 13.363281 C 34.90625 13.335938 34.941406 13.316406 34.972656 13.292969 C 35.007812 13.261719 35.039062 13.230469 35.078125 13.210938 L 46.613281 6.613281 C 46.910156 6.441406 47.273438 6.441406 47.570312 6.613281 L 59.105469 13.210938 C 59.144531 13.234375 59.175781 13.261719 59.210938 13.289062 C 59.242188 13.316406 59.277344 13.335938 59.304688 13.363281 C 59.335938 13.398438 59.363281 13.4375 59.390625 13.472656 C 59.410156 13.503906 59.4375 13.527344 59.457031 13.558594 C 59.484375 13.605469 59.5 13.65625 59.519531 13.707031 C 59.527344 13.734375 59.542969 13.757812 59.550781 13.789062 Z M 57.664062 26.566406 L 57.664062 15.6875 L 53.625 17.996094 L 48.050781 21.1875 L 48.050781 32.066406 Z M 46.128906 46.246094 L 46.128906 35.359375 L 40.644531 38.472656 L 24.988281 47.351562 L 24.988281 58.339844 Z M 1.921875 9.203125 L 1.921875 46.246094 L 23.0625 58.339844 L 23.0625 47.355469 L 12.019531 41.144531 L 12.011719 41.136719 C 11.972656 41.117188 11.941406 41.085938 11.90625 41.058594 C 11.878906 41.035156 11.84375 41.015625 11.816406 40.992188 L 11.8125 40.988281 C 11.78125 40.957031 11.761719 40.921875 11.734375 40.886719 C 11.710938 40.855469 11.683594 40.828125 11.664062 40.792969 L 11.660156 40.789062 C 11.640625 40.753906 11.625 40.710938 11.609375 40.671875 C 11.59375 40.636719 11.574219 40.601562 11.566406 40.5625 C 11.554688 40.515625 11.550781 40.46875 11.546875 40.421875 C 11.542969 40.386719 11.53125 40.351562 11.53125 40.316406 L 11.53125 14.699219 L 5.957031 11.511719 Z M 12.496094 2.058594 L 2.886719 7.550781 L 12.492188 13.046875 L 22.097656 7.550781 L 12.492188 2.058594 Z M 17.492188 36.351562 L 23.066406 33.164062 L 23.066406 9.203125 L 19.03125 11.511719 L 13.453125 14.699219 L 13.453125 38.660156 Z M 47.089844 8.542969 L 37.484375 14.035156 L 47.089844 19.53125 L 56.699219 14.035156 Z M 46.128906 21.1875 L 40.554688 17.996094 L 36.519531 15.6875 L 36.519531 26.566406 L 42.09375 29.753906 L 46.128906 32.066406 Z M 24.023438 45.699219 L 38.117188 37.707031 L 45.160156 33.714844 L 35.558594 28.222656 L 24.507812 34.542969 L 14.433594 40.308594 Z M 24.023438 45.699219 "/>
</g>
</svg>
