<?xml version="1.0" encoding="UTF-8"?>
<svg xmlns="http://www.w3.org/2000/svg" xmlns:xlink="http://www.w3.org/1999/xlink" width="60px" height="60px" viewBox="0 0 60 52" version="1.1">
<g id="surface1">
<path style=" stroke:none;fill-rule:nonzero;fill:rgb(38.039216%,85.490197%,98.431373%);fill-opacity:1;" d="M 35.226562 26 C 35.226562 23.121094 32.886719 20.789062 30 20.789062 C 27.113281 20.789062 24.773438 23.121094 24.773438 26 C 24.773438 28.878906 27.113281 31.210938 30 31.210938 C 32.886719 31.210938 35.226562 28.878906 35.226562 26 Z M 35.226562 26 "/>
<path style="fill:none;stroke-width:1;stroke-linecap:butt;stroke-linejoin:miter;stroke:rgb(38.039216%,85.490197%,98.431373%);stroke-opacity:1;stroke-miterlimit:4;" d="M 11.000453 0 C 11.000453 -2.319666 6.074763 -4.199687 0 -4.199687 C -6.074763 -4.199687 -11.000453 -2.319666 -11.000453 0 C -11.000453 2.319666 -6.074763 4.199687 0 4.199687 C 6.074763 4.199687 11.000453 2.319666 11.000453 0 Z M 11.000453 0 " transform="matrix(2.549611,0,0,2.541112,30,26)"/>
<path style="fill:none;stroke-width:1;stroke-linecap:butt;stroke-linejoin:miter;stroke:rgb(38.039216%,85.490197%,98.431373%);stroke-opacity:1;stroke-miterlimit:4;" d="M 11.000006 -0.000257888 C 11.000516 -2.31927 6.074768 -4.200755 0.0000809066 -4.199827 C -6.075937 -4.199667 -11.000827 -2.319523 -11.000006 0.000257888 C -11.000516 2.31927 -6.074768 4.200755 -0.0000809066 4.199827 C 6.075937 4.199667 11.000827 2.319523 11.000006 -0.000257888 Z M 11.000006 -0.000257888 " transform="matrix(1.274805,2.200668,-2.208028,1.270556,30,26)"/>
<path style="fill:none;stroke-width:1;stroke-linecap:butt;stroke-linejoin:miter;stroke:rgb(38.039216%,85.490197%,98.431373%);stroke-opacity:1;stroke-miterlimit:4;" d="M 11.000006 0.000257888 C 11.000827 -2.319523 6.075937 -4.199667 -0.0000809066 -4.199827 C -6.074768 -4.200755 -11.000516 -2.31927 -11.000006 -0.000257888 C -11.000827 2.319523 -6.075937 4.199667 0.0000809066 4.199827 C 6.074768 4.200755 11.000516 2.31927 11.000006 0.000257888 Z M 11.000006 0.000257888 " transform="matrix(-1.274805,2.200668,-2.208028,-1.270556,30,26)"/>
</g>
</svg>
