<?xml version="1.0" encoding="UTF-8"?>
<svg xmlns="http://www.w3.org/2000/svg" xmlns:xlink="http://www.w3.org/1999/xlink" width="60px" height="60px" viewBox="0 0 60 60" version="1.1">
<g id="surface1">
<path style=" stroke:none;fill-rule:nonzero;fill:rgb(3.921569%,81.176472%,51.372552%);fill-opacity:1;" d="M 20.007812 60 C 25.53125 60 30.007812 55.523438 30.007812 50 L 30.007812 40 L 20.007812 40 C 14.484375 40 10.007812 44.476562 10.007812 50 C 10.007812 55.523438 14.484375 60 20.007812 60 Z M 20.007812 60 "/>
<path style=" stroke:none;fill-rule:nonzero;fill:rgb(63.529414%,34.901962%,100%);fill-opacity:1;" d="M 10.007812 30 C 10.007812 24.476562 14.484375 20 20.007812 20 L 30.007812 20 L 30.007812 40 L 20.007812 40 C 14.484375 40 10.007812 35.523438 10.007812 30 Z M 10.007812 30 "/>
<path style=" stroke:none;fill-rule:nonzero;fill:rgb(94.901961%,30.588236%,11.764706%);fill-opacity:1;" d="M 10.007812 10 C 10.007812 4.480469 14.480469 0.00390625 20 0 L 30 0 L 30 20 L 20.007812 20 C 14.484375 20 10.007812 15.523438 10.007812 10 Z M 10.007812 10 "/>
<path style=" stroke:none;fill-rule:nonzero;fill:rgb(100%,44.705883%,38.431373%);fill-opacity:1;" d="M 30.007812 0 L 40.007812 0 C 45.53125 0 50.007812 4.476562 50.007812 10 C 50.007812 15.523438 45.53125 20 40.007812 20 L 30.007812 20 Z M 30.007812 0 "/>
<path style=" stroke:none;fill-rule:nonzero;fill:rgb(10.196079%,73.725492%,99.607843%);fill-opacity:1;" d="M 50.007812 30 C 50.007812 35.523438 45.53125 40 40.007812 40 C 34.484375 40 30.007812 35.523438 30.007812 30 C 30.007812 24.476562 34.484375 20 40.007812 20 C 45.53125 20 50.007812 24.476562 50.007812 30 Z M 50.007812 30 "/>
</g>
</svg>
