<?xml version="1.0" encoding="UTF-8"?>
<svg xmlns="http://www.w3.org/2000/svg" xmlns:xlink="http://www.w3.org/1999/xlink" width="60px" height="60px" viewBox="0 0 60 60" version="1.1">
<g id="surface1">
<path style=" stroke:none;fill-rule:evenodd;fill:rgb(10.588235%,12.156863%,13.725491%);fill-opacity:1;" d="M 30 0 C 13.425781 0 0 13.425781 0 30 C 0 43.273438 8.585938 54.488281 20.511719 58.460938 C 22.011719 58.726562 22.574219 57.824219 22.574219 57.039062 C 22.574219 56.324219 22.539062 53.960938 22.539062 51.449219 C 15 52.835938 13.050781 49.613281 12.449219 47.925781 C 12.113281 47.0625 10.648438 44.398438 9.375 43.6875 C 8.324219 43.125 6.824219 41.738281 9.335938 41.699219 C 11.699219 41.664062 13.386719 43.875 13.949219 44.773438 C 16.648438 49.3125 20.960938 48.039062 22.6875 47.25 C 22.949219 45.300781 23.738281 43.988281 24.601562 43.238281 C 17.925781 42.488281 10.949219 39.898438 10.949219 28.425781 C 10.949219 25.164062 12.113281 22.460938 14.023438 20.363281 C 13.726562 19.613281 12.675781 16.539062 14.324219 12.414062 C 14.324219 12.414062 16.835938 11.625 22.574219 15.488281 C 24.976562 14.8125 27.523438 14.476562 30.074219 14.476562 C 32.625 14.476562 35.175781 14.8125 37.574219 15.488281 C 43.3125 11.585938 45.824219 12.414062 45.824219 12.414062 C 47.476562 16.539062 46.425781 19.613281 46.125 20.363281 C 48.039062 22.460938 49.199219 25.125 49.199219 28.425781 C 49.199219 39.9375 42.1875 42.488281 35.511719 43.238281 C 36.601562 44.175781 37.539062 45.976562 37.539062 48.789062 C 37.539062 52.800781 37.5 56.023438 37.5 57.039062 C 37.5 57.824219 38.0625 58.761719 39.5625 58.460938 C 51.414062 54.488281 60 43.238281 60 30 C 60 13.425781 46.574219 0 30 0 Z M 30 0 "/>
</g>
</svg>
