<?xml version="1.0" encoding="UTF-8"?>
<svg xmlns="http://www.w3.org/2000/svg" xmlns:xlink="http://www.w3.org/1999/xlink" width="60px" height="60px" viewBox="0 0 60 59" version="1.1">
<g id="surface1">
<path style=" stroke:none;fill-rule:nonzero;fill:rgb(90.980393%,46.27451%,17.647059%);fill-opacity:1;" d="M 28.359375 39.863281 L 31.640625 39.863281 L 31.640625 30.9375 L 39.902344 30.9375 L 39.902344 27.765625 L 31.640625 27.765625 L 31.640625 18.839844 L 28.359375 18.839844 L 28.359375 27.765625 L 20.199219 27.765625 L 20.199219 30.9375 L 28.359375 30.9375 Z M 28.359375 39.863281 "/>
<path style=" stroke:none;fill-rule:nonzero;fill:rgb(78.039217%,12.54902%,21.568628%);fill-opacity:1;" d="M 13.132812 52.75 L 15.921875 52.75 L 15.921875 44.820312 L 23.285156 44.820312 L 23.285156 42.339844 L 15.921875 42.339844 L 15.921875 34.308594 L 13.132812 34.308594 L 13.132812 42.339844 L 5.769531 42.339844 L 5.769531 44.820312 L 13.132812 44.820312 Z M 13.132812 52.75 "/>
<path style=" stroke:none;fill-rule:nonzero;fill:rgb(35.686275%,52.941179%,60.784316%);fill-opacity:1;" d="M 44.078125 24.097656 L 46.867188 24.097656 L 46.867188 16.164062 L 54.328125 16.164062 L 54.328125 13.785156 L 46.867188 13.785156 L 46.867188 5.753906 L 44.078125 5.753906 L 44.078125 13.785156 L 36.714844 13.785156 L 36.714844 16.164062 L 44.078125 16.164062 Z M 44.078125 24.097656 "/>
<path style=" stroke:none;fill-rule:nonzero;fill:rgb(36.078432%,40.000001%,57.254905%);fill-opacity:1;" d="M 28.855469 58.996094 L 31.242188 58.996094 L 31.242188 53.347656 L 36.320312 53.347656 L 36.320312 51.265625 L 31.242188 51.265625 L 31.242188 45.613281 L 28.855469 45.613281 L 28.855469 51.265625 L 23.878906 51.265625 L 23.878906 53.347656 L 28.855469 53.347656 Z M 28.855469 58.996094 "/>
<path style=" stroke:none;fill-rule:nonzero;fill:rgb(92.156863%,56.862748%,16.078432%);fill-opacity:1;" d="M 13.234375 24.097656 L 15.820312 24.097656 L 15.820312 16.066406 L 23.285156 16.066406 L 23.285156 13.785156 L 15.820312 13.785156 L 15.820312 5.753906 L 13.234375 5.753906 L 13.234375 13.785156 L 5.769531 13.785156 L 5.769531 16.066406 L 13.234375 16.066406 Z M 13.234375 24.097656 "/>
<path style=" stroke:none;fill-rule:nonzero;fill:rgb(36.078432%,40.000001%,57.254905%);fill-opacity:1;" d="M 52.539062 35.996094 L 54.925781 35.996094 L 54.925781 30.441406 L 60 30.441406 L 60 28.261719 L 54.925781 28.261719 L 54.925781 22.707031 L 52.539062 22.707031 L 52.539062 28.261719 L 47.5625 28.261719 L 47.5625 30.441406 L 52.539062 30.441406 Z M 52.539062 35.996094 "/>
<path style=" stroke:none;fill-rule:evenodd;fill:rgb(12.156863%,27.058825%,49.411765%);fill-opacity:1;" d="M 44.078125 52.75 L 46.867188 52.75 L 46.867188 44.820312 L 54.328125 44.820312 L 54.328125 42.339844 L 46.867188 42.339844 L 46.867188 34.308594 L 44.078125 34.308594 L 44.078125 42.339844 L 36.714844 42.339844 L 36.714844 44.820312 L 44.078125 44.820312 Z M 44.078125 52.75 "/>
<path style=" stroke:none;fill-rule:nonzero;fill:rgb(44.313726%,60.000002%,65.098041%);fill-opacity:1;" d="M 35.921875 7.140625 L 35.921875 5.457031 L 30.945312 5.457031 L 30.945312 0.00390625 L 29.152344 0.00390625 L 29.152344 5.457031 L 24.179688 5.457031 L 24.179688 7.140625 L 29.152344 7.140625 L 29.152344 12.59375 L 30.945312 12.59375 L 30.945312 7.140625 Z M 4.976562 35.597656 L 6.765625 35.597656 L 6.765625 30.144531 L 11.742188 30.144531 L 11.742188 28.457031 L 6.765625 28.457031 L 6.765625 23.105469 L 4.976562 23.105469 L 4.976562 28.457031 L 0 28.457031 L 0 30.242188 L 4.976562 30.144531 Z M 4.976562 35.597656 "/>
</g>
</svg>
