<?xml version="1.0" encoding="UTF-8"?>
<svg xmlns="http://www.w3.org/2000/svg" xmlns:xlink="http://www.w3.org/1999/xlink" width="60px" height="60px" viewBox="0 0 60 60" version="1.1">
<g id="surface1">
<path style=" stroke:none;fill-rule:evenodd;fill:rgb(0%,45.09804%,90.196079%);fill-opacity:1;" d="M 60 13.691406 L 60 3.671875 C 60 3.367188 59.835938 3.082031 59.570312 2.929688 C 59.308594 2.777344 58.980469 2.773438 58.714844 2.925781 L 52.117188 6.695312 C 51.582031 7.003906 51.25 7.570312 51.25 8.1875 L 51.25 18.210938 C 51.25 18.515625 51.414062 18.800781 51.675781 18.953125 C 51.941406 19.105469 52.269531 19.109375 52.535156 18.957031 L 59.132812 15.1875 C 59.671875 14.878906 60 14.308594 60 13.6875 Z M 1.289062 2.929688 L 20.394531 13.886719 C 20.925781 14.1875 21.574219 14.1875 22.105469 13.886719 L 41.210938 2.929688 C 41.476562 2.773438 41.804688 2.777344 42.070312 2.929688 C 42.335938 3.082031 42.5 3.367188 42.5 3.671875 L 42.5 33.75 C 42.5 34.335938 42.199219 34.878906 41.703125 35.199219 L 30.078125 42.582031 L 37.851562 47.160156 C 38.402344 47.484375 39.089844 47.480469 39.632812 47.136719 L 51.160156 39.941406 C 51.410156 39.785156 51.5625 39.507812 51.5625 39.210938 L 51.5625 29 C 51.5625 28.367188 51.914062 27.785156 52.46875 27.484375 L 58.734375 24.121094 C 59 23.976562 59.324219 23.984375 59.582031 24.140625 C 59.839844 24.296875 60 24.578125 60 24.878906 L 60 43.707031 C 60 44.316406 59.675781 44.878906 59.148438 45.1875 L 39.566406 56.667969 C 39.015625 56.988281 38.332031 56.980469 37.789062 56.644531 L 22.90625 47.441406 C 22.652344 47.285156 22.5 47.007812 22.5 46.710938 L 22.5 37.652344 C 22.5 37.363281 22.640625 37.097656 22.882812 36.9375 L 32.980469 30.199219 C 33.460938 29.882812 33.75 29.34375 33.75 28.769531 L 33.75 17.796875 C 33.75 17.671875 33.683594 17.558594 33.574219 17.496094 C 33.46875 17.4375 33.335938 17.4375 33.230469 17.503906 L 22.128906 24.164062 C 21.585938 24.488281 20.910156 24.488281 20.367188 24.167969 L 9.113281 17.5 C 9.007812 17.4375 8.875 17.433594 8.765625 17.496094 C 8.660156 17.554688 8.59375 17.667969 8.59375 17.792969 L 8.59375 37.625 C 8.59375 37.933594 8.425781 38.21875 8.15625 38.371094 C 7.886719 38.523438 7.558594 38.519531 7.292969 38.363281 L 1.25 34.738281 C 0.472656 34.273438 0 33.433594 0 32.527344 L 0 3.671875 C 0 3.367188 0.164062 3.082031 0.429688 2.929688 C 0.695312 2.777344 1.019531 2.773438 1.289062 2.929688 "/>
</g>
</svg>
