<?xml version="1.0" encoding="UTF-8"?>
<svg xmlns="http://www.w3.org/2000/svg" xmlns:xlink="http://www.w3.org/1999/xlink" width="60px" height="60px" viewBox="0 0 60 60" version="1.1">
<g id="surface1">
<path style=" stroke:none;fill-rule:nonzero;fill:rgb(14.901961%,30.19608%,89.411765%);fill-opacity:1;" d="M 56.46875 0 L 51.648438 53.992188 L 29.984375 60 L 8.378906 54.003906 L 3.5625 0 Z M 56.46875 0 "/>
<path style=" stroke:none;fill-rule:nonzero;fill:rgb(16.078432%,39.607844%,94.509804%);fill-opacity:1;" d="M 30.015625 55.410156 L 47.519531 50.554688 L 51.640625 4.414062 L 30.015625 4.414062 Z M 30.015625 55.410156 "/>
<path style=" stroke:none;fill-rule:nonzero;fill:rgb(92.156863%,92.156863%,92.156863%);fill-opacity:1;" d="M 30.015625 24.445312 L 14.601562 24.445312 L 15.195312 31.066406 L 30.015625 31.066406 Z M 30.015625 24.445312 "/>
<path style=" stroke:none;fill-rule:nonzero;fill:rgb(92.156863%,92.156863%,92.156863%);fill-opacity:1;" d="M 30.015625 11.039062 L 13.40625 11.039062 L 14.007812 17.660156 L 30.015625 17.660156 Z M 30.015625 11.039062 "/>
<path style=" stroke:none;fill-rule:nonzero;fill:rgb(92.156863%,92.156863%,92.156863%);fill-opacity:1;" d="M 15.488281 34.378906 L 16.417969 44.777344 L 29.984375 48.542969 L 30.015625 48.535156 L 30.015625 41.644531 L 29.984375 41.652344 L 22.609375 39.660156 L 22.136719 34.378906 Z M 15.488281 34.378906 "/>
<path style=" stroke:none;fill-rule:nonzero;fill:rgb(100%,100%,100%);fill-opacity:1;" d="M 38.148438 31.066406 L 37.378906 39.65625 L 29.992188 41.652344 L 29.992188 48.542969 L 43.570312 44.777344 L 43.667969 43.660156 L 45.226562 26.222656 L 45.386719 24.445312 L 46.582031 11.039062 L 29.992188 11.039062 L 29.992188 17.660156 L 39.324219 17.660156 L 38.722656 24.445312 L 29.992188 24.445312 L 29.992188 31.066406 Z M 38.148438 31.066406 "/>
</g>
</svg>
