<?xml version="1.0" encoding="UTF-8"?>
<svg xmlns="http://www.w3.org/2000/svg" xmlns:xlink="http://www.w3.org/1999/xlink" width="60px" height="60px" viewBox="0 0 60 60" version="1.1">
<g id="surface1">
<path style=" stroke:none;fill-rule:nonzero;fill:rgb(89.411765%,30.19608%,14.901961%);fill-opacity:1;" d="M 8.363281 54.003906 L 3.546875 0 L 56.453125 0 L 51.632812 53.996094 L 29.964844 60 Z M 8.363281 54.003906 "/>
<path style=" stroke:none;fill-rule:nonzero;fill:rgb(94.509804%,39.607844%,16.078432%);fill-opacity:1;" d="M 47.507812 50.558594 L 51.625 4.417969 L 30 4.417969 L 30 55.410156 Z M 47.507812 50.558594 "/>
<path style=" stroke:none;fill-rule:nonzero;fill:rgb(92.156863%,92.156863%,92.156863%);fill-opacity:1;" d="M 29.976562 11.039062 L 13.390625 11.039062 L 15.179688 31.070312 L 30 31.070312 L 30 24.445312 L 21.234375 24.445312 L 20.628906 17.664062 L 30 17.664062 L 30 11.039062 Z M 30 41.625 L 29.972656 41.632812 L 22.59375 39.640625 L 22.125 34.359375 L 15.472656 34.359375 L 16.402344 44.757812 L 29.96875 48.507812 L 30 48.5 Z M 30 41.625 "/>
<path style=" stroke:none;fill-rule:nonzero;fill:rgb(100%,100%,100%);fill-opacity:1;" d="M 29.976562 31.070312 L 38.132812 31.070312 L 37.382812 39.65625 L 29.996094 41.648438 L 29.996094 48.539062 L 43.574219 44.777344 L 45.394531 24.441406 L 30 24.441406 Z M 46.410156 12.816406 L 46.566406 11.039062 L 29.972656 11.039062 L 29.972656 17.664062 L 45.972656 17.664062 L 46.101562 16.171875 Z M 46.410156 12.816406 "/>
</g>
</svg>
