<?xml version="1.0" encoding="UTF-8"?>
<svg xmlns="http://www.w3.org/2000/svg" xmlns:xlink="http://www.w3.org/1999/xlink" width="60px" height="60px" viewBox="0 0 60 60" version="1.1">
<g id="surface1">
<path style=" stroke:none;fill-rule:nonzero;fill:rgb(94.117647%,23.529412%,18.039216%);fill-opacity:1;" d="M 58.867188 27.328125 L 32.671875 1.132812 C 31.164062 -0.375 28.714844 -0.375 27.207031 1.132812 L 21.769531 6.570312 L 28.671875 13.46875 C 30.277344 12.90625 32.113281 13.292969 33.390625 14.570312 C 34.632812 15.816406 35.058594 17.660156 34.480469 19.320312 L 41.132812 25.96875 C 42.742188 25.414062 44.597656 25.773438 45.882812 27.0625 C 47.675781 28.859375 47.675781 31.769531 45.878906 33.566406 C 44.085938 35.359375 41.171875 35.359375 39.375 33.5625 C 38.027344 32.214844 37.691406 30.226562 38.375 28.5625 L 32.171875 22.359375 L 32.171875 38.683594 C 32.625 38.90625 33.035156 39.199219 33.390625 39.554688 C 35.1875 41.347656 35.1875 44.261719 33.390625 46.054688 C 31.597656 47.851562 28.683594 47.851562 26.890625 46.054688 C 26.027344 45.195312 25.539062 44.023438 25.539062 42.804688 C 25.539062 41.585938 26.027344 40.414062 26.890625 39.554688 C 27.332031 39.109375 27.828125 38.773438 28.394531 38.550781 L 28.394531 22.078125 C 27.847656 21.851562 27.332031 21.519531 26.890625 21.074219 C 25.570312 19.753906 25.175781 17.765625 25.898438 16.046875 L 19.09375 9.242188 L 1.128906 27.1875 C 0.40625 27.910156 -0.00390625 28.894531 -0.00390625 29.921875 C -0.00390625 30.945312 0.40625 31.929688 1.128906 32.652344 L 27.328125 58.847656 C 28.835938 60.355469 31.285156 60.355469 32.792969 58.847656 L 58.867188 32.8125 C 59.59375 32.089844 60 31.105469 60 30.078125 C 60 29.054688 59.59375 28.070312 58.867188 27.347656 "/>
</g>
</svg>
