<?xml version="1.0" encoding="UTF-8"?>
<svg xmlns="http://www.w3.org/2000/svg" xmlns:xlink="http://www.w3.org/1999/xlink" width="60px" height="60px" viewBox="0 0 60 67" version="1.1">
<g id="surface1">
<path style=" stroke:none;fill-rule:nonzero;fill:rgb(63.137257%,47.450981%,86.274511%);fill-opacity:1;" d="M 59.898438 19.648438 C 59.898438 18.523438 59.65625 17.53125 59.167969 16.679688 C 58.6875 15.839844 57.964844 15.136719 57 14.582031 C 49.023438 10.019531 41.042969 5.46875 33.070312 0.898438 C 30.921875 -0.332031 28.835938 -0.289062 26.703125 0.960938 C 23.53125 2.820312 7.636719 11.859375 2.902344 14.578125 C 0.953125 15.699219 0.00390625 17.414062 0.00390625 19.644531 C 0 28.824219 0.00390625 38.003906 0 47.179688 C 0 48.28125 0.230469 49.253906 0.699219 50.09375 C 1.179688 50.957031 1.910156 51.679688 2.898438 52.246094 C 7.636719 54.96875 23.53125 64.003906 26.703125 65.863281 C 28.835938 67.113281 30.921875 67.160156 33.070312 65.925781 C 41.042969 61.355469 49.027344 56.808594 57.003906 52.242188 C 57.992188 51.675781 58.722656 50.953125 59.203125 50.089844 C 59.667969 49.25 59.902344 48.277344 59.902344 47.179688 C 59.902344 47.179688 59.902344 28.824219 59.898438 19.648438 "/>
<path style=" stroke:none;fill-rule:nonzero;fill:rgb(15.686275%,0%,40.784314%);fill-opacity:1;" d="M 30.042969 33.324219 L 0.699219 50.09375 C 1.179688 50.957031 1.910156 51.679688 2.898438 52.246094 C 7.636719 54.96875 23.53125 64.003906 26.703125 65.863281 C 28.835938 67.113281 30.921875 67.160156 33.070312 65.925781 C 41.042969 61.355469 49.027344 56.808594 57.003906 52.242188 C 57.992188 51.675781 58.722656 50.953125 59.203125 50.089844 L 30.042969 33.324219 "/>
<path style=" stroke:none;fill-rule:nonzero;fill:rgb(22.352941%,0%,56.862748%);fill-opacity:1;" d="M 59.898438 19.648438 C 59.898438 18.523438 59.65625 17.53125 59.167969 16.679688 L 30.042969 33.324219 L 59.203125 50.089844 C 59.667969 49.25 59.902344 48.277344 59.902344 47.179688 C 59.902344 47.179688 59.902344 28.824219 59.898438 19.648438 "/>
<path style=" stroke:none;fill-rule:nonzero;fill:rgb(100%,100%,100%);fill-opacity:1;" d="M 47.320312 27.054688 L 47.320312 30.1875 L 50.476562 30.1875 L 50.476562 27.054688 L 52.054688 27.054688 L 52.054688 30.1875 L 55.214844 30.1875 L 55.214844 31.757812 L 52.054688 31.757812 L 52.054688 34.890625 L 55.214844 34.890625 L 55.214844 36.457031 L 52.054688 36.457031 L 52.054688 39.59375 L 50.476562 39.59375 L 50.476562 36.457031 L 47.320312 36.457031 L 47.320312 39.59375 L 45.738281 39.59375 L 45.738281 36.457031 L 42.582031 36.457031 L 42.582031 34.890625 L 45.738281 34.890625 L 45.738281 31.757812 L 42.582031 31.757812 L 42.582031 30.1875 L 45.738281 30.1875 L 45.738281 27.054688 Z M 50.476562 31.757812 L 47.320312 31.757812 L 47.320312 34.890625 L 50.476562 34.890625 Z M 50.476562 31.757812 "/>
<path style=" stroke:none;fill-rule:nonzero;fill:rgb(100%,100%,100%);fill-opacity:1;" d="M 30.105469 11.3125 C 38.34375 11.3125 45.535156 15.753906 49.386719 22.351562 L 49.347656 22.289062 L 39.660156 27.828125 C 37.75 24.617188 34.25 22.453125 30.234375 22.410156 L 30.105469 22.40625 C 23.984375 22.40625 19.019531 27.335938 19.019531 33.414062 C 19.019531 35.402344 19.554688 37.261719 20.480469 38.871094 C 22.394531 42.183594 25.984375 44.417969 30.105469 44.417969 C 34.253906 44.417969 37.867188 42.15625 39.769531 38.808594 L 39.722656 38.890625 L 49.398438 44.453125 C 45.589844 50.996094 38.496094 55.425781 30.355469 55.511719 L 30.105469 55.511719 C 21.84375 55.511719 14.632812 51.046875 10.789062 44.410156 C 8.914062 41.171875 7.839844 37.417969 7.839844 33.414062 C 7.839844 21.207031 17.808594 11.3125 30.105469 11.3125 Z M 30.105469 11.3125 "/>
</g>
</svg>
