<?xml version="1.0" encoding="UTF-8"?>
<svg xmlns="http://www.w3.org/2000/svg" xmlns:xlink="http://www.w3.org/1999/xlink" width="60px" height="60px" viewBox="0 0 60 32" version="1.1">
<defs>
<clipPath id="clip1">
  <path d="M 0.84375 15.984375 C 0.84375 24.351562 13.902344 31.132812 30.007812 31.132812 C 46.117188 31.132812 59.171875 24.351562 59.171875 15.984375 C 59.171875 7.617188 46.117188 0.832031 30.007812 0.832031 C 13.902344 0.832031 0.84375 7.617188 0.84375 15.984375 "/>
</clipPath>
<radialGradient id="radial0" gradientUnits="userSpaceOnUse" cx="0" cy="0" fx="0" fy="0" r="1" gradientTransform="matrix(38.297246,0,0,37.81853,18.354432,6.159569)">
<stop offset="0" style="stop-color:rgb(68.235294%,69.803922%,83.529412%);stop-opacity:1;"/>
<stop offset="0.3" style="stop-color:rgb(68.235294%,69.803922%,83.529412%);stop-opacity:1;"/>
<stop offset="0.75" style="stop-color:rgb(28.235294%,29.803922%,53.72549%);stop-opacity:1;"/>
<stop offset="1" style="stop-color:rgb(28.235294%,29.803922%,53.72549%);stop-opacity:1;"/>
</radialGradient>
</defs>
<g id="surface1">
<g clip-path="url(#clip1)" clip-rule="nonzero">
<path style=" stroke:none;fill-rule:nonzero;fill:url(#radial0);" d="M 0.84375 15.984375 C 0.84375 24.351562 13.902344 31.132812 30.007812 31.132812 C 46.117188 31.132812 59.171875 24.351562 59.171875 15.984375 C 59.171875 7.617188 46.117188 0.832031 30.007812 0.832031 C 13.902344 0.832031 0.84375 7.617188 0.84375 15.984375 "/>
</g>
<path style=" stroke:none;fill-rule:nonzero;fill:rgb(46.666667%,48.235294%,70.19608%);fill-opacity:1;" d="M 30.007812 30.007812 C 45.484375 30.007812 58.035156 23.730469 58.035156 15.984375 C 58.035156 8.238281 45.484375 1.957031 30.007812 1.957031 C 14.53125 1.957031 1.984375 8.238281 1.984375 15.984375 C 1.984375 23.730469 14.53125 30.007812 30.007812 30.007812 "/>
<path style=" stroke:none;fill-rule:nonzero;fill:rgb(0%,0%,0%);fill-opacity:1;" d="M 16.6875 17.722656 C 17.960938 17.722656 18.910156 17.492188 19.511719 17.035156 C 20.109375 16.582031 20.519531 15.796875 20.734375 14.703125 C 20.933594 13.683594 20.859375 12.96875 20.507812 12.585938 C 20.148438 12.191406 19.371094 11.992188 18.199219 11.992188 L 16.164062 11.992188 L 15.035156 17.722656 Z M 10.035156 24.78125 C 9.941406 24.78125 9.851562 24.738281 9.792969 24.664062 C 9.734375 24.59375 9.707031 24.5 9.726562 24.40625 L 12.714844 9.226562 C 12.742188 9.078125 12.875 8.972656 13.023438 8.972656 L 19.464844 8.972656 C 21.488281 8.972656 22.996094 9.515625 23.941406 10.585938 C 24.894531 11.660156 25.1875 13.164062 24.816406 15.054688 C 24.664062 15.828125 24.40625 16.542969 24.042969 17.183594 C 23.679688 17.824219 23.199219 18.417969 22.617188 18.945312 C 21.917969 19.589844 21.128906 20.058594 20.273438 20.332031 C 19.425781 20.605469 18.34375 20.742188 17.050781 20.742188 L 14.441406 20.742188 L 13.695312 24.527344 C 13.667969 24.671875 13.539062 24.78125 13.386719 24.78125 Z M 10.035156 24.78125 "/>
<path style=" stroke:none;fill-rule:nonzero;fill:rgb(100%,100%,100%);fill-opacity:1;" d="M 16.425781 12.304688 L 18.199219 12.304688 C 19.613281 12.304688 20.105469 12.613281 20.273438 12.796875 C 20.550781 13.097656 20.601562 13.738281 20.421875 14.644531 C 20.222656 15.660156 19.851562 16.382812 19.320312 16.785156 C 18.777344 17.199219 17.890625 17.410156 16.6875 17.410156 L 15.417969 17.410156 Z M 19.464844 8.660156 L 13.023438 8.660156 C 12.722656 8.660156 12.460938 8.871094 12.402344 9.164062 L 9.414062 24.347656 C 9.378906 24.53125 9.429688 24.71875 9.546875 24.863281 C 9.667969 25.007812 9.847656 25.09375 10.035156 25.09375 L 13.386719 25.09375 C 13.6875 25.09375 13.949219 24.878906 14.007812 24.585938 L 14.703125 21.054688 L 17.050781 21.054688 C 18.375 21.054688 19.492188 20.914062 20.371094 20.628906 C 21.269531 20.339844 22.101562 19.851562 22.832031 19.175781 C 23.441406 18.621094 23.941406 18.003906 24.320312 17.335938 C 24.699219 16.664062 24.96875 15.917969 25.128906 15.117188 C 25.519531 13.125 25.199219 11.53125 24.179688 10.378906 C 23.171875 9.238281 21.585938 8.660156 19.464844 8.660156 M 14.652344 18.035156 L 16.6875 18.035156 C 18.039062 18.035156 19.046875 17.785156 19.707031 17.28125 C 20.367188 16.777344 20.8125 15.941406 21.042969 14.765625 C 21.265625 13.636719 21.164062 12.839844 20.742188 12.375 C 20.316406 11.914062 19.46875 11.679688 18.199219 11.679688 L 15.902344 11.679688 L 14.652344 18.035156 M 19.464844 9.285156 C 21.402344 9.285156 22.816406 9.785156 23.703125 10.789062 C 24.59375 11.796875 24.859375 13.195312 24.507812 14.996094 C 24.359375 15.738281 24.113281 16.414062 23.765625 17.03125 C 23.417969 17.644531 22.964844 18.207031 22.402344 18.714844 C 21.734375 19.332031 20.992188 19.773438 20.175781 20.035156 C 19.355469 20.300781 18.316406 20.429688 17.050781 20.429688 L 14.179688 20.429688 L 13.386719 24.46875 L 10.035156 24.46875 L 13.023438 9.285156 L 19.464844 9.285156 "/>
<path style=" stroke:none;fill-rule:nonzero;fill:rgb(0%,0%,0%);fill-opacity:1;" d="M 32.496094 20.742188 C 32.402344 20.742188 32.3125 20.703125 32.253906 20.628906 C 32.191406 20.558594 32.167969 20.460938 32.183594 20.371094 L 33.507812 13.652344 C 33.632812 13.015625 33.601562 12.554688 33.421875 12.363281 C 33.308594 12.242188 32.972656 12.046875 31.984375 12.046875 L 29.589844 12.046875 L 27.929688 20.488281 C 27.898438 20.636719 27.769531 20.742188 27.617188 20.742188 L 24.292969 20.742188 C 24.199219 20.742188 24.109375 20.703125 24.050781 20.628906 C 23.992188 20.558594 23.964844 20.460938 23.984375 20.371094 L 26.972656 5.1875 C 27 5.042969 27.132812 4.9375 27.28125 4.9375 L 30.605469 4.9375 C 30.699219 4.9375 30.789062 4.976562 30.851562 5.050781 C 30.910156 5.121094 30.933594 5.214844 30.917969 5.308594 L 30.195312 8.972656 L 32.769531 8.972656 C 34.734375 8.972656 36.066406 9.3125 36.839844 10.015625 C 37.628906 10.734375 37.875 11.878906 37.574219 13.425781 L 36.183594 20.488281 C 36.152344 20.636719 36.023438 20.742188 35.871094 20.742188 Z M 32.496094 20.742188 "/>
<path style=" stroke:none;fill-rule:nonzero;fill:rgb(100%,100%,100%);fill-opacity:1;" d="M 30.605469 4.625 L 27.28125 4.625 C 26.980469 4.625 26.71875 4.835938 26.660156 5.128906 L 23.671875 20.3125 C 23.636719 20.496094 23.6875 20.683594 23.804688 20.828125 C 23.925781 20.972656 24.105469 21.054688 24.292969 21.054688 L 27.617188 21.054688 C 27.921875 21.054688 28.179688 20.84375 28.238281 20.550781 L 29.851562 12.359375 L 31.984375 12.359375 C 32.972656 12.359375 33.179688 12.566406 33.1875 12.574219 C 33.246094 12.636719 33.328125 12.933594 33.195312 13.59375 L 31.875 20.3125 C 31.839844 20.496094 31.886719 20.683594 32.007812 20.828125 C 32.128906 20.972656 32.308594 21.054688 32.496094 21.054688 L 35.871094 21.054688 C 36.175781 21.054688 36.433594 20.84375 36.492188 20.550781 L 37.882812 13.484375 C 38.210938 11.824219 37.929688 10.582031 37.054688 9.785156 C 36.21875 9.027344 34.816406 8.660156 32.769531 8.660156 L 30.578125 8.660156 L 31.226562 5.367188 C 31.261719 5.183594 31.214844 4.996094 31.09375 4.851562 C 30.972656 4.707031 30.792969 4.625 30.605469 4.625 M 30.605469 5.25 L 29.8125 9.285156 L 32.769531 9.285156 C 34.632812 9.285156 35.917969 9.605469 36.625 10.246094 C 37.332031 10.886719 37.542969 11.929688 37.261719 13.367188 L 35.871094 20.429688 L 32.496094 20.429688 L 33.816406 13.714844 C 33.96875 12.949219 33.914062 12.425781 33.652344 12.148438 C 33.390625 11.871094 32.835938 11.734375 31.984375 11.734375 L 29.328125 11.734375 L 27.617188 20.429688 L 24.292969 20.429688 L 27.28125 5.25 L 30.605469 5.25 "/>
<path style=" stroke:none;fill-rule:nonzero;fill:rgb(0%,0%,0%);fill-opacity:1;" d="M 42.832031 17.722656 C 44.101562 17.722656 45.054688 17.492188 45.652344 17.035156 C 46.25 16.582031 46.660156 15.796875 46.875 14.703125 C 47.074219 13.683594 47 12.96875 46.648438 12.585938 C 46.289062 12.191406 45.511719 11.992188 44.339844 11.992188 L 42.304688 11.992188 L 41.175781 17.722656 Z M 36.179688 24.78125 C 36.082031 24.78125 35.992188 24.738281 35.933594 24.664062 C 35.875 24.59375 35.847656 24.5 35.867188 24.40625 L 38.855469 9.226562 C 38.882812 9.078125 39.015625 8.972656 39.167969 8.972656 L 45.605469 8.972656 C 47.628906 8.972656 49.136719 9.515625 50.085938 10.585938 C 51.035156 11.660156 51.328125 13.164062 50.957031 15.054688 C 50.804688 15.828125 50.546875 16.542969 50.183594 17.183594 C 49.820312 17.824219 49.339844 18.417969 48.757812 18.945312 C 48.058594 19.589844 47.269531 20.058594 46.414062 20.332031 C 45.570312 20.605469 44.484375 20.742188 43.191406 20.742188 L 40.582031 20.742188 L 39.839844 24.527344 C 39.808594 24.671875 39.679688 24.78125 39.527344 24.78125 Z M 36.179688 24.78125 "/>
<path style=" stroke:none;fill-rule:nonzero;fill:rgb(100%,100%,100%);fill-opacity:1;" d="M 42.566406 12.304688 L 44.339844 12.304688 C 45.753906 12.304688 46.246094 12.613281 46.414062 12.796875 C 46.691406 13.097656 46.742188 13.738281 46.5625 14.644531 C 46.363281 15.660156 45.992188 16.382812 45.460938 16.785156 C 44.917969 17.199219 44.03125 17.410156 42.832031 17.410156 L 41.5625 17.410156 Z M 45.605469 8.660156 L 39.167969 8.660156 C 38.863281 8.660156 38.601562 8.871094 38.546875 9.164062 L 35.558594 24.347656 C 35.519531 24.53125 35.570312 24.71875 35.691406 24.863281 C 35.808594 25.007812 35.988281 25.09375 36.179688 25.09375 L 39.527344 25.09375 C 39.832031 25.09375 40.089844 24.878906 40.148438 24.585938 L 40.84375 21.054688 L 43.191406 21.054688 C 44.515625 21.054688 45.636719 20.914062 46.511719 20.628906 C 47.410156 20.339844 48.242188 19.851562 48.972656 19.175781 C 49.582031 18.621094 50.082031 18.003906 50.460938 17.335938 C 50.839844 16.664062 51.109375 15.917969 51.269531 15.117188 C 51.660156 13.125 51.34375 11.53125 50.324219 10.378906 C 49.3125 9.238281 47.726562 8.660156 45.605469 8.660156 M 40.792969 18.035156 L 42.832031 18.035156 C 44.179688 18.035156 45.1875 17.785156 45.847656 17.28125 C 46.507812 16.777344 46.953125 15.941406 47.1875 14.765625 C 47.40625 13.636719 47.304688 12.839844 46.882812 12.375 C 46.457031 11.914062 45.609375 11.679688 44.339844 11.679688 L 42.042969 11.679688 L 40.792969 18.035156 M 45.605469 9.285156 C 47.542969 9.285156 48.957031 9.785156 49.847656 10.789062 C 50.734375 11.796875 51 13.195312 50.648438 14.996094 C 50.5 15.738281 50.253906 16.414062 49.90625 17.03125 C 49.558594 17.644531 49.105469 18.207031 48.542969 18.714844 C 47.875 19.332031 47.132812 19.773438 46.316406 20.035156 C 45.496094 20.300781 44.457031 20.429688 43.191406 20.429688 L 40.320312 20.429688 L 39.527344 24.46875 L 36.179688 24.46875 L 39.167969 9.285156 L 45.605469 9.285156 "/>
</g>
</svg>
