<?xml version="1.0" encoding="UTF-8"?>
<svg xmlns="http://www.w3.org/2000/svg" xmlns:xlink="http://www.w3.org/1999/xlink" width="60px" height="60px" viewBox="0 0 60 53" version="1.1">
<g id="surface1">
<path style=" stroke:none;fill-rule:nonzero;fill:rgb(43.921569%,16.470589%,96.862745%);fill-opacity:1;" d="M 52.660156 21.953125 C 51.625 28.34375 48.3125 34.167969 43.316406 38.382812 C 38.320312 42.601562 31.960938 44.941406 25.375 44.984375 C 24.039062 45.035156 22.703125 44.957031 21.386719 44.746094 C 15.707031 43.796875 11.46875 39.082031 11.222656 33.425781 C 11.246094 30.367188 12.5 27.4375 14.703125 25.273438 C 19.289062 20.773438 26.707031 20.722656 31.359375 25.160156 C 33.59375 27.292969 34.886719 30.203125 34.957031 33.261719 C 35.007812 35.195312 34.15625 36.890625 32.402344 36.9375 C 30.53125 36.9375 29.652344 35.628906 29.652344 33.859375 L 29.652344 28.945312 C 29.65625 27.292969 28.296875 25.949219 26.613281 25.933594 L 22.421875 25.933594 C 19.945312 25.917969 17.628906 27.136719 16.269531 29.171875 C 14.910156 31.207031 14.699219 33.78125 15.703125 36.007812 C 16.707031 38.234375 18.789062 39.804688 21.238281 40.183594 C 23.683594 40.5625 26.160156 39.695312 27.8125 37.878906 L 27.957031 37.664062 L 28.105469 37.902344 C 29.128906 39.269531 30.78125 40.042969 32.507812 39.964844 C 35.65625 39.738281 38.050781 37.085938 37.898438 33.988281 C 37.910156 32.710938 37.765625 31.433594 37.464844 30.191406 C 36.6875 26.679688 34.613281 23.574219 31.640625 21.472656 C 25.492188 17.125 16.992188 18.039062 11.945312 23.59375 C 9.507812 26.273438 8.167969 29.746094 8.183594 33.34375 C 8.230469 37.152344 9.777344 40.800781 12.503906 43.511719 C 15.230469 46.226562 18.917969 47.796875 22.796875 47.890625 C 22.796875 47.890625 23.894531 47.988281 25.132812 47.960938 C 31.148438 47.925781 37.03125 46.199219 42.082031 42.992188 C 42.15625 42.945312 42.226562 43.042969 42.179688 43.113281 C 37.199219 48.382812 30.109375 51.230469 22.796875 50.902344 C 18.027344 50.984375 13.425781 49.152344 10.0625 45.820312 C 6.703125 42.492188 4.871094 37.957031 4.996094 33.269531 C 5 27.664062 7.695312 22.386719 12.265625 19.03125 C 15.296875 16.835938 18.960938 15.648438 22.726562 15.636719 L 28.351562 15.636719 C 32.796875 15.632812 37.035156 13.796875 40.03125 10.574219 C 40.0625 10.539062 40.101562 10.515625 40.148438 10.503906 C 40.242188 10.484375 40.339844 10.527344 40.386719 10.609375 C 40.414062 10.648438 40.421875 10.695312 40.417969 10.738281 C 40.179688 13.222656 39.339844 15.617188 37.964844 17.714844 C 37.921875 17.789062 37.929688 17.878906 37.980469 17.949219 C 38.035156 18.015625 38.121094 18.046875 38.207031 18.027344 C 43.472656 16.859375 47.863281 13.300781 50.035156 8.445312 C 50.0625 8.402344 50.097656 8.367188 50.144531 8.339844 C 50.234375 8.289062 50.347656 8.289062 50.4375 8.339844 C 50.480469 8.367188 50.519531 8.402344 50.546875 8.445312 C 52.75 12.59375 53.496094 17.34375 52.660156 21.953125 Z M 22.78125 28.886719 C 21.472656 28.882812 20.230469 29.460938 19.398438 30.457031 C 18.566406 31.453125 18.234375 32.761719 18.488281 34.023438 C 18.835938 35.730469 20.191406 37.0625 21.929688 37.402344 C 23.214844 37.652344 24.546875 37.324219 25.558594 36.507812 C 26.570312 35.691406 27.160156 34.472656 27.160156 33.183594 L 27.160156 29.171875 C 27.152344 29.011719 27.019531 28.882812 26.859375 28.875 Z M 22.78125 28.886719 "/>
</g>
</svg>
