<?xml version="1.0" encoding="UTF-8"?>
<svg xmlns="http://www.w3.org/2000/svg" xmlns:xlink="http://www.w3.org/1999/xlink" width="60px" height="60px" viewBox="0 0 60 60" version="1.1">
<defs>
<filter id="alpha" filterUnits="objectBoundingBox" x="0%" y="0%" width="100%" height="100%">
  <feColorMatrix type="matrix" in="SourceGraphic" values="0 0 0 0 1 0 0 0 0 1 0 0 0 0 1 0 0 0 1 0"/>
</filter>
<mask id="mask0">
  <g filter="url(#alpha)">
<rect x="0" y="0" width="60" height="60" style="fill:rgb(0%,0%,0%);fill-opacity:0.101961;stroke:none;"/>
  </g>
</mask>
<clipPath id="clip1">
  <rect x="0" y="0" width="60" height="60"/>
</clipPath>
<g id="surface5" clip-path="url(#clip1)">
<path style=" stroke:none;fill-rule:nonzero;fill:rgb(100%,100%,100%);fill-opacity:1;" d="M 9.207031 8.4375 C 0.898438 15.84375 -2.628906 27.238281 0.0429688 38.042969 C 2.71875 48.847656 11.152344 57.28125 21.957031 59.957031 C 32.761719 62.628906 44.15625 59.101562 51.5625 50.792969 Z M 9.207031 8.4375 "/>
</g>
</defs>
<g id="surface1">
<path style=" stroke:none;fill-rule:nonzero;fill:rgb(36.078432%,17.647059%,56.862748%);fill-opacity:1;" d="M 60 30 C 60 13.429688 46.570312 0 30 0 C 13.429688 0 0 13.429688 0 30 C 0 46.570312 13.429688 60 30 60 C 46.570312 60 60 46.570312 60 30 Z M 60 30 "/>
<use xlink:href="#surface5" mask="url(#mask0)"/>
<path style=" stroke:none;fill-rule:nonzero;fill:rgb(100%,100%,100%);fill-opacity:1;" d="M 6.9375 34.921875 C 6.582031 34.925781 6.242188 34.785156 6 34.527344 C 5.75 34.28125 5.609375 33.941406 5.617188 33.589844 C 5.613281 33.238281 5.75 32.902344 6 32.652344 C 6.242188 32.390625 6.582031 32.246094 6.9375 32.25 C 7.292969 32.25 7.632812 32.394531 7.875 32.652344 C 8.128906 32.898438 8.269531 33.238281 8.269531 33.589844 C 8.273438 33.945312 8.128906 34.28125 7.875 34.527344 C 7.628906 34.78125 7.289062 34.925781 6.9375 34.921875 Z M 6.9375 34.921875 "/>
<path style=" stroke:none;fill-rule:nonzero;fill:rgb(100%,100%,100%);fill-opacity:1;" d="M 25.566406 34.6875 L 23.109375 34.6875 L 14.324219 21.054688 C 14.105469 20.71875 13.925781 20.363281 13.78125 19.988281 L 13.707031 19.988281 C 13.789062 20.765625 13.820312 21.546875 13.800781 22.332031 L 13.800781 34.6875 L 11.804688 34.6875 L 11.804688 17.597656 L 14.398438 17.597656 L 22.949219 30.984375 C 23.304688 31.539062 23.539062 31.921875 23.644531 32.128906 L 23.691406 32.128906 C 23.589844 31.292969 23.550781 30.453125 23.570312 29.617188 L 23.570312 17.597656 L 25.566406 17.597656 Z M 25.566406 34.6875 "/>
<path style=" stroke:none;fill-rule:nonzero;fill:rgb(100%,100%,100%);fill-opacity:1;" d="M 39.085938 34.6875 L 30 34.6875 L 30 17.597656 L 38.664062 17.597656 L 38.664062 19.40625 L 32.042969 19.40625 L 32.042969 25.085938 L 38.210938 25.085938 L 38.210938 26.886719 L 32.042969 26.886719 L 32.042969 32.8125 L 39.09375 32.8125 Z M 39.085938 34.6875 "/>
<path style=" stroke:none;fill-rule:nonzero;fill:rgb(100%,100%,100%);fill-opacity:1;" d="M 52.5 19.40625 L 47.53125 19.40625 L 47.53125 34.6875 L 45.535156 34.6875 L 45.535156 19.40625 L 40.621094 19.40625 L 40.621094 17.597656 L 52.5 17.597656 Z M 52.5 19.40625 "/>
<path style=" stroke:none;fill-rule:nonzero;fill:rgb(94.901961%,94.901961%,94.901961%);fill-opacity:1;" d="M 24.488281 46.3125 C 23.8125 46.640625 23.0625 46.796875 22.3125 46.773438 C 21.300781 46.816406 20.320312 46.425781 19.621094 45.695312 C 18.933594 44.921875 18.570312 43.914062 18.609375 42.882812 C 18.558594 41.75 18.96875 40.648438 19.742188 39.824219 C 20.5 39.050781 21.546875 38.628906 22.632812 38.664062 C 23.273438 38.640625 23.910156 38.753906 24.507812 38.992188 L 24.507812 39.929688 C 23.933594 39.609375 23.285156 39.449219 22.632812 39.460938 C 21.796875 39.4375 20.992188 39.777344 20.429688 40.398438 C 19.84375 41.0625 19.539062 41.929688 19.585938 42.816406 C 19.539062 43.652344 19.824219 44.476562 20.371094 45.113281 C 20.90625 45.6875 21.660156 45.996094 22.445312 45.964844 C 23.164062 45.984375 23.875 45.800781 24.496094 45.441406 Z M 24.488281 46.3125 "/>
<path style=" stroke:none;fill-rule:nonzero;fill:rgb(94.901961%,94.901961%,94.901961%);fill-opacity:1;" d="M 28.320312 46.773438 C 27.566406 46.796875 26.839844 46.492188 26.324219 45.9375 C 25.8125 45.367188 25.546875 44.613281 25.585938 43.847656 C 25.535156 43.035156 25.816406 42.238281 26.363281 41.632812 C 26.917969 41.089844 27.675781 40.800781 28.453125 40.835938 C 29.1875 40.796875 29.90625 41.082031 30.414062 41.617188 C 30.910156 42.214844 31.164062 42.984375 31.117188 43.761719 C 31.15625 44.554688 30.882812 45.328125 30.355469 45.917969 C 29.832031 46.484375 29.089844 46.796875 28.320312 46.773438 Z M 28.386719 41.644531 C 27.863281 41.621094 27.359375 41.839844 27.019531 42.234375 C 26.65625 42.699219 26.476562 43.277344 26.511719 43.867188 C 26.480469 44.433594 26.660156 44.996094 27.019531 45.441406 C 27.363281 45.828125 27.867188 46.042969 28.386719 46.023438 C 28.898438 46.050781 29.390625 45.84375 29.726562 45.460938 C 30.070312 44.992188 30.234375 44.421875 30.195312 43.847656 C 30.234375 43.269531 30.066406 42.695312 29.726562 42.226562 C 29.398438 41.832031 28.902344 41.617188 28.386719 41.644531 Z M 28.386719 41.644531 "/>
<path style=" stroke:none;fill-rule:nonzero;fill:rgb(94.901961%,94.901961%,94.901961%);fill-opacity:1;" d="M 35.492188 41.925781 C 35.292969 41.792969 35.050781 41.730469 34.808594 41.746094 C 34.425781 41.761719 34.074219 41.964844 33.871094 42.289062 C 33.59375 42.730469 33.457031 43.25 33.488281 43.773438 L 33.488281 46.640625 L 32.550781 46.640625 L 32.550781 41.015625 L 33.488281 41.015625 L 33.488281 42.1875 C 33.589844 41.824219 33.796875 41.5 34.078125 41.25 C 34.324219 41.039062 34.636719 40.921875 34.960938 40.921875 C 35.140625 40.914062 35.320312 40.9375 35.492188 40.996094 Z M 35.492188 41.925781 "/>
<path style=" stroke:none;fill-rule:nonzero;fill:rgb(94.901961%,94.901961%,94.901961%);fill-opacity:1;" d="M 40.988281 44.0625 L 37.023438 44.0625 C 36.996094 44.585938 37.164062 45.101562 37.5 45.507812 C 37.851562 45.855469 38.335938 46.039062 38.832031 46.011719 C 39.464844 46.007812 40.082031 45.785156 40.574219 45.382812 L 40.574219 46.226562 C 39.996094 46.609375 39.308594 46.796875 38.617188 46.761719 C 37.90625 46.796875 37.21875 46.515625 36.742188 45.992188 C 36.253906 45.386719 36.007812 44.617188 36.054688 43.835938 C 36.023438 43.058594 36.289062 42.292969 36.796875 41.699219 C 37.265625 41.15625 37.953125 40.855469 38.671875 40.875 C 39.320312 40.839844 39.949219 41.101562 40.378906 41.585938 C 40.808594 42.15625 41.023438 42.863281 40.976562 43.574219 Z M 40.050781 43.304688 C 40.070312 42.867188 39.9375 42.441406 39.675781 42.09375 C 39.414062 41.800781 39.035156 41.640625 38.644531 41.664062 C 38.234375 41.65625 37.84375 41.824219 37.566406 42.121094 C 37.257812 42.449219 37.0625 42.867188 37.011719 43.3125 Z M 40.050781 43.304688 "/>
</g>
</svg>
