<?xml version="1.0" encoding="UTF-8"?>
<svg xmlns="http://www.w3.org/2000/svg" xmlns:xlink="http://www.w3.org/1999/xlink" width="60px" height="60px" viewBox="0 0 60 60" version="1.1">
<g id="surface1">
<path style=" stroke:none;fill-rule:nonzero;fill:rgb(42.745098%,70.19608%,24.705882%);fill-opacity:1;" d="M 54.625 3.492188 C 53.789062 5.492188 52.710938 7.378906 51.410156 9.113281 C 43.832031 1.273438 32.59375 -1.824219 22.070312 1.019531 C 11.542969 3.863281 3.394531 12.203125 0.796875 22.792969 C -1.800781 33.378906 1.5625 44.542969 9.578125 51.9375 L 10.691406 52.925781 C 19.296875 60.183594 31.25 61.996094 41.621094 57.613281 C 51.992188 53.226562 59.023438 43.394531 59.816406 32.164062 C 60.679688 24.625 58.394531 14.984375 54.625 3.492188 Z M 13.902344 52.183594 C 13.015625 53.273438 11.414062 53.4375 10.324219 52.550781 C 9.230469 51.664062 9.066406 50.0625 9.953125 48.972656 C 10.839844 47.878906 12.441406 47.714844 13.53125 48.597656 C 14.597656 49.5 14.761719 51.082031 13.902344 52.183594 Z M 54.4375 43.222656 C 47.085938 53.046875 31.265625 49.710938 21.195312 50.207031 C 21.195312 50.207031 19.402344 50.328125 17.609375 50.578125 C 17.609375 50.578125 18.289062 50.269531 19.15625 49.957031 C 26.261719 47.488281 29.597656 46.992188 33.921875 44.769531 C 42.019531 40.628906 50.113281 31.542969 51.71875 22.152344 C 48.628906 31.175781 39.238281 38.960938 30.710938 42.109375 C 24.839844 44.273438 14.273438 46.375 14.273438 46.375 L 13.839844 46.128906 C 6.671875 42.605469 6.425781 27.035156 19.527344 22.027344 C 25.273438 19.804688 30.710938 21.039062 36.953125 19.558594 C 43.5625 18.011719 51.226562 13.070312 54.316406 6.582031 C 57.777344 17.023438 61.976562 33.214844 54.4375 43.222656 Z M 54.4375 43.222656 "/>
</g>
</svg>
